<svg width="16" height="14" viewBox="0 0 16 14" fill="none" xmlns="http://www.w3.org/2000/svg">
<path d="M13.6258 0.903687H2.68523C2.06346 0.903687 1.46715 1.15069 1.02748 1.59035C0.58782 2.03001 0.34082 2.62632 0.34082 3.2481V11.0628C0.34082 11.6846 0.58782 12.2809 1.02748 12.7206C1.46715 13.1602 2.06346 13.4072 2.68523 13.4072H13.6258C14.2476 13.4072 14.8439 13.1602 15.2836 12.7206C15.7232 12.2809 15.9702 11.6846 15.9702 11.0628V3.2481C15.9702 2.62632 15.7232 2.03001 15.2836 1.59035C14.8439 1.15069 14.2476 0.903687 13.6258 0.903687ZM13.6258 2.46663L8.54627 5.95981C8.42747 6.02839 8.29271 6.0645 8.15553 6.0645C8.01835 6.0645 7.88359 6.02839 7.7648 5.95981L2.68523 2.46663H13.6258Z" fill="#7FC8EE"/>
</svg>
