<svg width="15" height="15" viewBox="0 0 15 15" fill="none" xmlns="http://www.w3.org/2000/svg">
<path d="M8.20809 4.66667C8.77167 4.66667 9.31218 4.89055 9.71069 5.28906C10.1092 5.68758 10.3331 6.22808 10.3331 6.79167C10.3331 6.97953 10.4077 7.1597 10.5406 7.29253C10.6734 7.42537 10.8536 7.5 11.0414 7.5C11.2293 7.5 11.4095 7.42537 11.5423 7.29253C11.6751 7.1597 11.7498 6.97953 11.7498 6.79167C11.7498 5.85236 11.3766 4.95152 10.7124 4.28733C10.0482 3.62314 9.1474 3.25 8.20809 3.25C8.02023 3.25 7.84006 3.32463 7.70722 3.45747C7.57438 3.5903 7.49976 3.77047 7.49976 3.95833C7.49976 4.14619 7.57438 4.32636 7.70722 4.4592C7.84006 4.59204 8.02023 4.66667 8.20809 4.66667Z" fill="#7FC8EE"/>
<path d="M8.20809 1.83317C9.52312 1.83317 10.7843 2.35556 11.7142 3.28543C12.644 4.2153 13.1664 5.47647 13.1664 6.7915C13.1664 6.97937 13.2411 7.15953 13.3739 7.29237C13.5067 7.42521 13.6869 7.49984 13.8748 7.49984C14.0626 7.49984 14.2428 7.42521 14.3756 7.29237C14.5085 7.15953 14.5831 6.97937 14.5831 6.7915C14.5831 5.10075 13.9114 3.47924 12.7159 2.2837C11.5204 1.08815 9.89884 0.416504 8.20809 0.416504C8.02023 0.416504 7.84006 0.491132 7.70722 0.62397C7.57438 0.756808 7.49976 0.936976 7.49976 1.12484C7.49976 1.3127 7.57438 1.49287 7.70722 1.6257C7.84006 1.75854 8.02023 1.83317 8.20809 1.83317Z" fill="#7FC8EE"/>
<path d="M14.4058 10.2694C14.3669 10.1557 14.2996 10.0538 14.2104 9.97324C14.1212 9.89269 14.0129 9.83617 13.8958 9.809L9.64584 8.83859C9.53048 8.81243 9.41041 8.81558 9.29658 8.84775C9.18275 8.87992 9.07878 8.94008 8.99418 9.02275C8.89501 9.11484 8.88793 9.12192 8.42751 10.0003C6.89978 9.29628 5.67563 8.06711 4.97793 6.5365C5.87751 6.08317 5.88459 6.08317 5.97668 5.97692C6.05935 5.89232 6.11951 5.78835 6.15168 5.67452C6.18385 5.56069 6.187 5.44062 6.16084 5.32525L5.19043 1.12484C5.16326 1.00775 5.10674 0.899496 5.0262 0.810275C4.94565 0.721053 4.84372 0.653797 4.73001 0.614837C4.56459 0.555755 4.39377 0.51305 4.22001 0.487337C4.04098 0.445826 3.85829 0.422099 3.67459 0.416504C2.81043 0.416504 1.98166 0.759792 1.3706 1.37085C0.759548 1.9819 0.41626 2.81067 0.41626 3.67484C0.420008 6.56676 1.57048 9.33916 3.61538 11.3841C5.66027 13.429 8.43267 14.5794 11.3246 14.5832C11.7525 14.5832 12.1762 14.4989 12.5715 14.3351C12.9668 14.1714 13.326 13.9314 13.6286 13.6288C13.9311 13.3263 14.1712 12.9671 14.3349 12.5717C14.4986 12.1764 14.5829 11.7527 14.5829 11.3248C14.5831 11.1445 14.5689 10.9645 14.5404 10.7865C14.5107 10.6106 14.4656 10.4375 14.4058 10.2694Z" fill="#7FC8EE"/>
</svg>
